<svg xmlns="http://www.w3.org/2000/svg" width="1604" height="718" fill="none" viewBox="0 0 1604 718"><g fill="#000" clip-path="url(#a)"><path d="M358.8 239.3c-65.78 0-119.6 53.82-119.6 119.6s53.82 119.6 119.6 119.6 119.6-53.488 119.6-119.6c0-66.113-53.488-119.6-119.6-119.6m0 196.343c-40.863 0-73.754-33.554-73.754-76.743s32.891-76.744 73.754-76.744 73.753 33.555 73.753 76.744-32.89 76.743-73.753 76.743M599.326 305.744c-21.594 0-42.524 8.638-53.488 23.256v-19.934h-43.189v232.556h43.189V457.57c10.964 13.621 31.229 20.93 53.488 20.93 46.511 0 83.056-36.545 83.056-86.378s-36.545-86.378-83.056-86.378m-7.309 135.215c-24.584 0-46.511-19.269-46.511-48.837s21.927-48.837 46.511-48.837 46.511 19.269 46.511 48.837-21.926 48.837-46.511 48.837M784.046 305.744c-47.175 0-84.384 36.877-84.384 86.378S732.22 478.5 785.375 478.5c43.521 0 71.428-26.246 80.066-55.814h-42.192c-5.316 12.293-20.266 20.93-38.206 20.93-22.259 0-39.202-15.614-43.189-37.873h125.58V388.8c0-45.183-31.561-83.056-83.388-83.056m-41.86 69.435c4.652-20.93 21.927-34.552 42.857-34.552 22.259 0 39.202 14.618 41.196 34.552zM982.38 305.744c-19.269 0-39.535 8.638-48.837 22.923v-19.601h-43.189v166.111h43.189V385.81c0-25.914 13.953-42.857 36.544-42.857 20.93 0 32.223 15.947 32.223 38.206v94.018h43.19V374.182c0-41.196-25.25-68.438-63.12-68.438M1156.12 242.628l-94.02 232.556h46.18l19.93-50.83h106.98l19.93 50.83h46.84l-93.35-232.556zm-12.96 143.188 38.54-97.341 38.2 97.341zM1363.42 242.628h-43.85v232.556h43.85z"/></g><defs><clipPath id="a"><path fill="#fff" d="M0 .1h1603.2v717.6H0z"/></clipPath></defs></svg>